# xmcd
#
# Track frame offsets: 
#        150
#        19741
#        36745
#        52530
#        69807
#        87240
#        100816
#        117089
#        131236
#        148513
#
# Disc length: 2263 seconds
#
# Revision: 0
# Processed by: cddbd v1.5.2PL0 Copyright (c) Steve Scherf et al.
# Submitted via: ExactAudioCopy v0.99pb4
#
DISCID=8008d50a
DTITLE=Kenny Rogers - The Best of Kenny Rogers
DYEAR=2005
DGENRE=Country
TTITLE0=She Believes in Me
TTITLE1=You Decorated My Life
TTITLE2=Through The Years
TTITLE3=Lady
TTITLE4=I Swear
TTITLE5=I Will Always Love You
TTITLE6=Wind Beneath My Wings
TTITLE7=You Are So Beautiful
TTITLE8=Endless Love
TTITLE9=Always and Forever
EXTD=
EXTT0=
EXTT1=
EXTT2=
EXTT3=
EXTT4=
EXTT5=
EXTT6=
EXTT7=
EXTT8=
EXTT9=
PLAYORDER=
